<svg width="726" height="150" viewBox="0 0 726 150" fill="none" xmlns="http://www.w3.org/2000/svg">
  <path
    d="M122.901 93.1619C122.716 93.9001 122.532 94.4537 122.347 95.1919C121.424 98.1445 120.133 100.728 118.656 103.127C117.18 105.341 115.519 107.187 113.489 108.848C111.828 110.324 109.983 111.431 107.953 112.538C105.739 113.646 103.155 114.568 100.756 114.937C99.0953 115.307 97.2499 115.491 95.4045 115.491C95.0355 115.491 94.6664 115.491 94.4818 115.491C92.0828 115.491 89.8684 115.122 87.4694 114.384C85.8085 113.83 83.9631 113.461 82.3023 113.277C81.9332 113.277 81.5642 113.277 81.0105 113.092C80.4569 113.092 79.9033 113.092 79.3496 113.092C78.0579 113.092 76.7661 113.092 75.4744 113.461C75.2898 113.461 75.1053 113.461 75.1053 113.461C58.4968 115.307 44.6564 126.01 38.1975 140.773C15.4993 128.224 -0.00195312 103.865 -0.00195312 76.1844C-0.00195312 66.0347 2.02796 56.4387 5.71873 47.7654C5.90327 47.7654 6.08781 47.5809 6.27235 47.3963C7.19504 46.8427 8.11772 46.4736 9.22495 45.92C10.1476 45.5509 11.2549 44.9973 12.1776 44.6283C13.1003 44.2592 14.2075 43.8901 15.1302 43.521C16.0529 43.1519 16.791 42.9674 17.7137 42.5983C17.8983 42.5983 18.2673 42.4138 18.4519 42.4138C19.19 42.2292 20.1128 41.8602 20.8509 41.6756C21.0355 41.6756 21.0354 41.6756 21.22 41.4911C22.1427 41.3066 23.0654 40.9375 24.1726 40.7529C24.3571 40.7529 24.5417 40.7529 24.5417 40.7529C25.4644 40.5684 26.3871 40.3839 27.4943 40.1993H27.6788C28.7861 40.0148 29.8933 39.8302 31.0005 39.6457C37.4594 24.1445 52.0379 12.8876 69.3846 11.5958C70.4918 15.6557 71.23 19.9001 71.23 24.329C71.23 26.1744 71.0454 28.0198 70.8609 29.8652C70.3073 35.0322 68.831 39.8302 66.6165 44.2592C70.8609 45.92 74.7362 47.7654 78.427 50.1644C82.8559 52.9325 86.9158 56.0696 90.7911 59.7604C94.2973 63.0821 97.619 66.9574 100.387 70.8327C97.619 71.94 95.4045 74.339 94.4818 77.1071L113.674 88.1794L122.901 93.1619Z"
    fill="white" />
  <path
    d="M75.1087 27.2817C74.3706 31.157 72.5252 38.9076 71.418 41.8602C72.7097 42.4138 77.1386 44.8128 80.2758 46.4737C84.1511 39.8303 86.1811 32.0797 86.1811 23.96C82.4903 24.5136 78.7995 25.6208 75.1087 27.2817Z"
    fill="white" />
  <path
    d="M74.9253 113.092C68.8355 114.015 63.1149 116.968 58.8705 121.397C55.9179 124.534 53.5188 128.409 52.2271 132.838C52.0425 133.392 51.858 133.945 51.858 134.314C51.858 134.683 51.6734 134.868 51.6734 135.237C51.4889 135.606 51.4889 135.975 51.4889 136.529C51.4889 136.898 51.3044 137.267 51.3044 137.821C50.9353 140.589 51.1199 143.541 51.4889 146.125C46.8755 144.649 42.262 142.803 38.0176 140.404C44.4764 125.641 58.3168 114.938 74.9253 113.092Z"
    fill="#B4BCC4" />
  <path
    d="M73.8174 2C43.184 2 16.795 20.6384 5.72266 47.3965C5.90719 47.3965 6.09174 47.212 6.27628 47.0274C7.19897 46.4738 8.12165 46.1047 9.22888 45.5511C10.1516 45.182 11.2588 44.6284 12.1815 44.2594C13.1042 43.8903 14.2114 43.5212 15.1341 43.1521C16.0568 42.783 16.795 42.5985 17.7177 42.2294C17.9022 42.2294 18.2713 42.0449 18.4558 42.0449C19.194 41.8604 20.1167 41.4913 20.8548 41.3067C21.0394 41.3067 21.0394 41.3067 21.2239 41.1222C22.1466 40.9377 23.0693 40.5686 24.1765 40.384C24.3611 40.384 24.5456 40.384 24.5456 40.384C25.4683 40.1995 26.391 40.015 27.4983 39.8304H27.6827C28.79 39.6459 29.8972 39.4613 31.0045 39.2768C37.4633 23.7756 52.0419 12.5187 69.3885 11.2269C70.4957 15.2868 71.2339 19.5312 71.2339 23.9601C71.2339 25.8055 71.0494 27.6509 70.8648 29.4963C70.3112 34.6633 68.8349 39.4614 66.6204 43.8903C70.8648 45.5511 74.7401 47.3965 78.4309 49.7955C82.8598 52.5636 86.9197 55.7008 90.795 59.3915C94.3012 62.7132 97.623 66.5885 100.391 70.4638C97.623 71.5711 95.4085 73.9701 94.4858 76.7382L113.678 87.8105L122.905 93.1621C122.72 93.9002 122.536 94.4539 122.351 95.192C121.428 98.1447 120.137 100.728 118.66 103.127C117.184 105.342 115.523 107.187 113.493 108.848C111.832 110.324 109.987 111.431 107.957 112.539C105.743 113.646 103.159 114.569 100.76 114.938C99.0992 115.307 97.2539 115.491 95.4085 115.491C95.0394 115.491 94.6703 115.491 94.4858 115.491C92.0868 115.491 89.8723 115.122 87.4733 114.384C85.8125 113.83 83.9671 113.461 82.3062 113.277C81.9371 113.277 81.5681 113.277 81.0145 113.092C80.4609 113.092 79.9072 113.092 79.3536 113.092C78.0618 113.092 76.7701 113.092 75.4783 113.461C75.2938 113.461 75.1092 113.461 75.1092 113.461C69.0194 114.384 63.2987 117.337 59.0543 121.766C56.1017 124.903 53.7027 128.778 52.411 133.207C52.2264 133.761 52.0419 134.314 52.0419 134.683C52.0419 135.052 51.8573 135.237 51.8573 135.606C51.6728 135.975 51.6728 136.344 51.6728 136.898C51.6728 137.267 51.4883 137.636 51.4883 138.19C51.1192 140.958 51.3037 143.91 51.8573 146.494C58.8698 148.708 66.4359 150 74.1865 150C114.97 150 148.002 116.968 148.002 76.1845C147.633 35.0324 114.416 2 73.8174 2ZM86.3661 23.9601C86.3661 32.0798 84.1516 39.8304 80.4608 46.4738C77.3237 44.813 72.8948 42.414 71.603 41.8604C72.7102 38.9077 74.5556 31.1571 75.2938 27.2818C78.8 25.6209 82.4908 24.5137 86.3661 23.9601Z"
    fill="#00263D" />
  <path
    d="M63.4824 71.571C63.4824 71.571 73.0784 71.2019 76.4001 72.4937C79.7218 73.7855 82.8589 77.1072 83.228 79.8753C83.228 79.8753 76.5846 81.7207 71.233 79.5062C65.8814 77.2917 63.4824 71.571 63.4824 71.571Z"
    fill="#00263D" />
  <path
    d="M181.987 106C181.351 106 180.821 105.788 180.397 105.364C179.973 104.869 179.761 104.339 179.761 103.774C179.761 103.421 179.796 103.103 179.867 102.82L205.095 34.662C205.307 33.8847 205.731 33.2133 206.367 32.648C207.003 32.0827 207.886 31.8 209.017 31.8H222.585C223.715 31.8 224.599 32.0827 225.235 32.648C225.871 33.2133 226.295 33.8847 226.507 34.662L251.735 102.82C251.806 103.103 251.841 103.421 251.841 103.774C251.841 104.339 251.629 104.869 251.205 105.364C250.781 105.788 250.251 106 249.615 106H238.591C237.531 106 236.754 105.753 236.259 105.258C235.764 104.763 235.446 104.304 235.305 103.88L230.747 92.008H200.855L196.297 103.88C196.155 104.304 195.837 104.763 195.343 105.258C194.848 105.753 194.071 106 193.011 106H181.987ZM204.777 78.334H226.719L215.801 47.806L204.777 78.334ZM265.632 106C264.854 106 264.218 105.753 263.724 105.258C263.229 104.763 262.982 104.127 262.982 103.35V33.39C262.982 32.6127 263.229 31.9767 263.724 31.482C264.218 30.9873 264.854 30.74 265.632 30.74H276.232C276.938 30.74 277.539 30.9873 278.034 31.482C278.528 31.9767 278.776 32.6127 278.776 33.39V103.35C278.776 104.127 278.528 104.763 278.034 105.258C277.539 105.753 276.938 106 276.232 106H265.632ZM304.045 106C303.268 106 302.632 105.753 302.137 105.258C301.642 104.763 301.395 104.127 301.395 103.35V63.388H293.127C292.35 63.388 291.714 63.1407 291.219 62.646C290.724 62.1513 290.477 61.5153 290.477 60.738V53.53C290.477 52.7527 290.724 52.1167 291.219 51.622C291.714 51.1273 292.35 50.88 293.127 50.88H301.395V47.064C301.395 42.5413 302.243 38.8313 303.939 35.934C305.635 33.0367 308.108 30.9167 311.359 29.574C314.61 28.2313 318.602 27.56 323.337 27.56H331.075C331.852 27.56 332.488 27.8073 332.983 28.302C333.478 28.7967 333.725 29.4327 333.725 30.21V37.418C333.725 38.1953 333.478 38.8313 332.983 39.326C332.488 39.8207 331.852 40.068 331.075 40.068H323.973C321.358 40.068 319.521 40.704 318.461 41.976C317.472 43.248 316.977 45.1207 316.977 47.594V50.88H330.015C330.792 50.88 331.428 51.1273 331.923 51.622C332.418 52.1167 332.665 52.7527 332.665 53.53V60.738C332.665 61.5153 332.418 62.1513 331.923 62.646C331.428 63.1407 330.792 63.388 330.015 63.388H316.977V103.35C316.977 104.127 316.73 104.763 316.235 105.258C315.74 105.753 315.14 106 314.433 106H304.045ZM359.263 107.06C355.517 107.06 352.161 106.353 349.193 104.94C346.225 103.456 343.857 101.477 342.091 99.004C340.324 96.5307 339.441 93.7747 339.441 90.736C339.441 85.7187 341.455 81.7613 345.483 78.864C349.581 75.9667 354.952 73.988 361.595 72.928L375.481 70.914V69.006C375.481 66.25 374.845 64.13 373.573 62.646C372.301 61.162 370.075 60.42 366.895 60.42C364.563 60.42 362.69 60.8793 361.277 61.798C359.863 62.7167 358.768 63.918 357.991 65.402C357.425 66.3207 356.613 66.78 355.553 66.78H345.483C344.705 66.78 344.105 66.568 343.681 66.144C343.257 65.6493 343.08 65.084 343.151 64.448C343.151 63.2467 343.61 61.8333 344.529 60.208C345.447 58.5827 346.861 56.9927 348.769 55.438C350.677 53.8127 353.115 52.47 356.083 51.41C359.051 50.35 362.69 49.82 367.001 49.82C371.453 49.82 375.269 50.35 378.449 51.41C381.629 52.47 384.173 53.954 386.081 55.862C387.989 57.77 389.402 59.996 390.321 62.54C391.239 65.0133 391.699 67.6987 391.699 70.596V103.35C391.699 104.127 391.451 104.763 390.957 105.258C390.462 105.753 389.826 106 389.049 106H378.661C377.954 106 377.353 105.753 376.859 105.258C376.364 104.763 376.117 104.127 376.117 103.35V99.428C375.198 100.771 373.961 102.043 372.407 103.244C370.852 104.375 368.979 105.293 366.789 106C364.669 106.707 362.16 107.06 359.263 107.06ZM363.503 96.036C365.835 96.036 367.919 95.5413 369.757 94.552C371.594 93.5627 373.043 92.0433 374.103 89.994C375.163 87.9447 375.693 85.3653 375.693 82.256V80.454L365.835 82.044C362.019 82.68 359.227 83.634 357.461 84.906C355.694 86.178 354.811 87.7327 354.811 89.57C354.811 90.9127 355.199 92.0787 355.977 93.068C356.825 94.0573 357.92 94.7993 359.263 95.294C360.605 95.7887 362.019 96.036 363.503 96.036ZM438.104 106C437.326 106 436.69 105.753 436.196 105.258C435.701 104.763 435.454 104.127 435.454 103.35V34.45C435.454 33.6727 435.701 33.0367 436.196 32.542C436.69 32.0473 437.326 31.8 438.104 31.8H469.586C475.451 31.8 480.256 32.648 484.002 34.344C487.747 36.04 490.503 38.4427 492.27 41.552C494.107 44.6613 495.026 48.3007 495.026 52.47C495.026 55.0847 494.531 57.3813 493.542 59.36C492.623 61.3387 491.457 62.964 490.044 64.236C488.701 65.508 487.394 66.462 486.122 67.098C488.878 68.37 491.28 70.49 493.33 73.458C495.45 76.3553 496.51 79.818 496.51 83.846C496.51 88.298 495.52 92.1847 493.542 95.506C491.563 98.8273 488.63 101.407 484.744 103.244C480.857 105.081 476.122 106 470.54 106H438.104ZM452.308 93.598H468.526C471.988 93.598 474.603 92.644 476.37 90.736C478.136 88.7573 479.02 86.4253 479.02 83.74C479.02 80.984 478.101 78.6873 476.264 76.85C474.497 74.942 471.918 73.988 468.526 73.988H452.308V93.598ZM452.308 61.798H467.572C470.893 61.798 473.366 60.9853 474.992 59.36C476.688 57.664 477.536 55.5087 477.536 52.894C477.536 50.2793 476.688 48.1947 474.992 46.64C473.366 45.0147 470.893 44.202 467.572 44.202H452.308V61.798ZM513.715 106C513.008 106 512.407 105.753 511.913 105.258C511.418 104.763 511.171 104.127 511.171 103.35V53.53C511.171 52.8233 511.418 52.2227 511.913 51.728C512.407 51.1627 513.008 50.88 513.715 50.88H524.103C524.809 50.88 525.41 51.1627 525.905 51.728C526.47 52.2227 526.753 52.8233 526.753 53.53V57.77C528.519 55.5793 530.675 53.8833 533.219 52.682C535.833 51.4807 538.837 50.88 542.229 50.88H546.787C547.493 50.88 548.094 51.1273 548.589 51.622C549.083 52.1167 549.331 52.7527 549.331 53.53V62.646C549.331 63.4233 549.083 64.0593 548.589 64.554C548.094 65.0487 547.493 65.296 546.787 65.296H537.459C534.349 65.296 531.911 66.1793 530.145 67.946C528.378 69.642 527.495 72.08 527.495 75.26V103.35C527.495 104.127 527.247 104.763 526.753 105.258C526.258 105.753 525.622 106 524.845 106H513.715ZM575.701 107.06C571.956 107.06 568.599 106.353 565.631 104.94C562.663 103.456 560.296 101.477 558.529 99.004C556.763 96.5307 555.879 93.7747 555.879 90.736C555.879 85.7187 557.893 81.7613 561.921 78.864C566.02 75.9667 571.391 73.988 578.033 72.928L591.919 70.914V69.006C591.919 66.25 591.283 64.13 590.011 62.646C588.739 61.162 586.513 60.42 583.333 60.42C581.001 60.42 579.129 60.8793 577.715 61.798C576.302 62.7167 575.207 63.918 574.429 65.402C573.864 66.3207 573.051 66.78 571.991 66.78H561.921C561.144 66.78 560.543 66.568 560.119 66.144C559.695 65.6493 559.519 65.084 559.589 64.448C559.589 63.2467 560.049 61.8333 560.967 60.208C561.886 58.5827 563.299 56.9927 565.207 55.438C567.115 53.8127 569.553 52.47 572.521 51.41C575.489 50.35 579.129 49.82 583.439 49.82C587.891 49.82 591.707 50.35 594.887 51.41C598.067 52.47 600.611 53.954 602.519 55.862C604.427 57.77 605.841 59.996 606.759 62.54C607.678 65.0133 608.137 67.6987 608.137 70.596V103.35C608.137 104.127 607.89 104.763 607.395 105.258C606.901 105.753 606.265 106 605.487 106H595.099C594.393 106 593.792 105.753 593.297 105.258C592.803 104.763 592.555 104.127 592.555 103.35V99.428C591.637 100.771 590.4 102.043 588.845 103.244C587.291 104.375 585.418 105.293 583.227 106C581.107 106.707 578.599 107.06 575.701 107.06ZM579.941 96.036C582.273 96.036 584.358 95.5413 586.195 94.552C588.033 93.5627 589.481 92.0433 590.541 89.994C591.601 87.9447 592.131 85.3653 592.131 82.256V80.454L582.273 82.044C578.457 82.68 575.666 83.634 573.899 84.906C572.133 86.178 571.249 87.7327 571.249 89.57C571.249 90.9127 571.638 92.0787 572.415 93.068C573.263 94.0573 574.359 94.7993 575.701 95.294C577.044 95.7887 578.457 96.036 579.941 96.036ZM626.696 106C625.989 106 625.388 105.753 624.894 105.258C624.399 104.763 624.152 104.127 624.152 103.35V53.53C624.152 52.7527 624.399 52.1167 624.894 51.622C625.388 51.1273 625.989 50.88 626.696 50.88H637.296C638.073 50.88 638.709 51.1273 639.204 51.622C639.698 52.1167 639.946 52.7527 639.946 53.53V103.35C639.946 104.127 639.698 104.763 639.204 105.258C638.709 105.753 638.073 106 637.296 106H626.696ZM626.378 42.4C625.671 42.4 625.07 42.1527 624.576 41.658C624.081 41.1633 623.834 40.5273 623.834 39.75V31.27C623.834 30.4927 624.081 29.8567 624.576 29.362C625.07 28.7967 625.671 28.514 626.378 28.514H637.508C638.285 28.514 638.921 28.7967 639.416 29.362C639.981 29.8567 640.264 30.4927 640.264 31.27V39.75C640.264 40.5273 639.981 41.1633 639.416 41.658C638.921 42.1527 638.285 42.4 637.508 42.4H626.378ZM661.655 106C660.948 106 660.348 105.753 659.853 105.258C659.358 104.763 659.111 104.127 659.111 103.35V53.53C659.111 52.7527 659.358 52.1167 659.853 51.622C660.348 51.1273 660.948 50.88 661.655 50.88H672.043C672.82 50.88 673.456 51.1273 673.951 51.622C674.446 52.1167 674.693 52.7527 674.693 53.53V57.664C676.53 55.4027 678.898 53.53 681.795 52.046C684.692 50.562 688.226 49.82 692.395 49.82C696.564 49.82 700.204 50.774 703.313 52.682C706.493 54.5193 708.966 57.24 710.733 60.844C712.57 64.3773 713.489 68.688 713.489 73.776V103.35C713.489 104.127 713.206 104.763 712.641 105.258C712.146 105.753 711.546 106 710.839 106H699.603C698.826 106 698.19 105.753 697.695 105.258C697.2 104.763 696.953 104.127 696.953 103.35V74.412C696.953 70.6667 696.034 67.7693 694.197 65.72C692.43 63.6 689.816 62.54 686.353 62.54C683.032 62.54 680.382 63.6 678.403 65.72C676.424 67.7693 675.435 70.6667 675.435 74.412V103.35C675.435 104.127 675.188 104.763 674.693 105.258C674.198 105.753 673.598 106 672.891 106H661.655Z"
    fill="#00263D" />
</svg>
