<svg width="341" height="249" viewBox="0 0 341 249" fill="none" xmlns="http://www.w3.org/2000/svg">
<g clip-path="url(#clip0_1534_12718)">
<path d="M172.104 28.5417C171.062 34.1667 169.604 39.5833 167.938 45C169.396 45.625 174.396 48.3333 178.146 50.2083C182.521 42.5 184.812 33.75 184.812 24.7917V24.5833C180.437 25.4167 176.062 26.6667 172.104 28.5417Z" fill="black"/>
<path d="M226.063 102.917C225.854 103.75 225.646 104.375 225.438 105.208C224.604 108.333 223.146 111.458 221.271 114.167C218.146 118.542 214.188 122.083 209.396 124.583C205.021 126.875 200.021 127.917 195.229 127.917H193.979C191.271 127.917 188.563 127.5 186.063 126.667C184.188 126.042 182.104 125.625 180.229 125.417L178.771 125.208C178.146 125.208 177.521 125.208 176.896 125.208C175.438 125.208 173.979 125.208 172.521 125.417C172.313 125.417 172.104 125.417 172.104 125.417C153.563 127.292 137.729 138.958 130.229 156.042C92.7293 135.625 76.8959 90.4167 93.3543 51.25L93.9793 51.0417C95.0209 50.4167 96.0626 50 97.3126 49.375C98.5626 48.9583 99.6043 48.3333 100.646 47.9167C101.688 47.5 102.938 47.0833 103.979 46.6667C105.021 46.25 105.854 46.0417 106.896 45.625L107.729 45.4167L110.438 44.5833L110.854 44.375C111.896 44.1667 112.938 43.75 114.188 43.5417H114.604C115.646 43.3333 116.688 43.125 117.938 42.9167H118.146C119.396 42.7083 120.646 42.5 121.896 42.2917C129.188 24.375 146.063 12.0833 165.438 10.625C166.896 15.2083 167.521 20.2083 167.521 25C167.521 27.0833 167.313 29.1667 167.104 31.25C166.479 36.875 164.813 42.2917 162.313 47.5C177.729 53.5417 191.063 63.9583 200.438 77.2917C197.313 78.5417 194.813 81.25 193.771 84.375L215.438 96.875L226.063 102.917Z" fill="black"/>
<path d="M171.658 125.5C159.574 127.375 149.574 135.917 146.033 147.792C145.824 148.417 145.616 149.042 145.616 149.458C145.408 150.083 145.408 150.083 145.408 150.5C145.408 150.917 145.199 151.333 145.199 151.958C145.199 152.583 144.991 152.792 144.991 153.208C144.574 156.333 144.783 159.458 145.408 162.583C140.199 160.917 134.991 158.833 130.199 156.125C137.491 139.25 153.324 127.375 171.658 125.5Z" fill="black"/>
<path d="M170.437 0C136.687 0 106.479 20.2083 93.3535 51.25L93.9785 51.0417C95.0202 50.4167 96.0619 50 97.3119 49.375C98.5619 48.9583 99.6035 48.3333 100.645 47.9167C101.687 47.5 102.937 47.0833 103.979 46.6667C105.02 46.25 105.854 46.0417 106.895 45.625L107.729 45.4167L110.437 44.5833L110.854 44.375C111.895 44.1667 112.937 43.75 114.187 43.5417H114.604C115.645 43.3333 116.687 43.125 117.937 42.9167H118.145C119.395 42.7083 120.645 42.5 121.895 42.2917C129.187 24.375 146.062 12.0833 165.437 10.625C166.895 15.2083 167.52 20.2083 167.52 25C167.52 27.0833 167.312 29.1667 167.104 31.25C166.479 36.875 164.812 42.2917 162.312 47.5C177.729 53.5417 191.062 63.9583 200.437 77.2917C197.312 78.5417 194.812 81.25 193.77 84.375L215.437 96.875L225.854 102.917C225.645 103.75 225.437 104.375 225.229 105.208C224.395 108.333 222.937 111.458 221.062 114.167C217.937 118.542 213.979 122.083 209.187 124.583C204.812 126.875 199.812 127.917 195.02 127.917H193.77C191.062 127.917 188.354 127.5 185.854 126.667C183.979 126.042 181.895 125.625 180.02 125.417L178.562 125.208C177.937 125.208 177.312 125.208 176.687 125.208C175.229 125.208 173.77 125.208 172.312 125.417C172.104 125.417 171.895 125.417 171.895 125.417C159.604 127.5 149.604 136.042 146.062 147.917C145.854 148.542 145.645 149.167 145.645 149.583C145.437 150.208 145.437 150.208 145.437 150.625C145.437 151.042 145.229 151.458 145.229 152.083C145.229 152.708 145.02 152.917 145.02 153.333C144.604 156.458 144.812 159.583 145.437 162.708C189.395 176.458 236.27 152.083 250.229 108.333C264.187 64.5833 239.395 17.7083 195.437 3.75C187.312 1.25 178.979 0 170.437 0ZM184.812 25C184.812 33.9583 182.52 42.7083 178.145 50.4167C174.604 48.5417 169.604 45.8333 167.937 45.2083C169.604 39.7917 171.062 34.375 172.104 28.75C176.062 26.875 180.437 25.625 184.812 25Z" fill="white"/>
<path d="M158.771 78.5417C158.771 78.5417 169.605 78.125 173.355 79.5833C177.105 81.0417 180.646 84.7917 181.063 87.9167C176.688 89.1667 171.896 88.9583 167.521 87.5C163.771 85.625 160.646 82.5 158.771 78.5417Z" fill="white"/>
<path d="M9.2845 248.546C8.9005 248.546 8.5805 248.418 8.3245 248.162C8.0685 247.863 7.9405 247.543 7.9405 247.202C7.9405 246.988 7.96183 246.796 8.0045 246.626L23.2365 205.474C23.3645 205.004 23.6205 204.599 24.0045 204.258C24.3885 203.916 24.9218 203.746 25.6045 203.746H33.7965C34.4792 203.746 35.0125 203.916 35.3965 204.258C35.7805 204.599 36.0365 205.004 36.1645 205.474L51.3965 246.626C51.4392 246.796 51.4605 246.988 51.4605 247.202C51.4605 247.543 51.3325 247.863 51.0765 248.162C50.8205 248.418 50.5005 248.546 50.1165 248.546H43.4605C42.8205 248.546 42.3512 248.396 42.0525 248.098C41.7538 247.799 41.5618 247.522 41.4765 247.266L38.7245 240.098H20.6765L17.9245 247.266C17.8392 247.522 17.6472 247.799 17.3485 248.098C17.0498 248.396 16.5805 248.546 15.9405 248.546H9.2845ZM23.0445 231.842H36.2925L29.7005 213.41L23.0445 231.842ZM59.787 248.546C59.3177 248.546 58.9337 248.396 58.635 248.098C58.3363 247.799 58.187 247.415 58.187 246.946V204.706C58.187 204.236 58.3363 203.852 58.635 203.554C58.9337 203.255 59.3177 203.106 59.787 203.106H66.187C66.6137 203.106 66.9763 203.255 67.275 203.554C67.5737 203.852 67.723 204.236 67.723 204.706V246.946C67.723 247.415 67.5737 247.799 67.275 248.098C66.9763 248.396 66.6137 248.546 66.187 248.546H59.787ZM82.98 248.546C82.5107 248.546 82.1267 248.396 81.828 248.098C81.5293 247.799 81.38 247.415 81.38 246.946V222.818H76.388C75.9187 222.818 75.5347 222.668 75.236 222.37C74.9373 222.071 74.788 221.687 74.788 221.218V216.866C74.788 216.396 74.9373 216.012 75.236 215.714C75.5347 215.415 75.9187 215.266 76.388 215.266H81.38V212.962C81.38 210.231 81.892 207.991 82.916 206.242C83.94 204.492 85.4333 203.212 87.396 202.402C89.3587 201.591 91.7693 201.186 94.628 201.186H99.3C99.7693 201.186 100.153 201.335 100.452 201.634C100.751 201.932 100.9 202.316 100.9 202.786V207.138C100.9 207.607 100.751 207.991 100.452 208.29C100.153 208.588 99.7693 208.738 99.3 208.738H95.012C93.4333 208.738 92.324 209.122 91.684 209.89C91.0867 210.658 90.788 211.788 90.788 213.282V215.266H98.66C99.1293 215.266 99.5133 215.415 99.812 215.714C100.111 216.012 100.26 216.396 100.26 216.866V221.218C100.26 221.687 100.111 222.071 99.812 222.37C99.5133 222.668 99.1293 222.818 98.66 222.818H90.788V246.946C90.788 247.415 90.6387 247.799 90.34 248.098C90.0413 248.396 89.6787 248.546 89.252 248.546H82.98ZM116.319 249.186C114.058 249.186 112.031 248.759 110.239 247.906C108.447 247.01 107.018 245.815 105.951 244.322C104.884 242.828 104.351 241.164 104.351 239.33C104.351 236.3 105.567 233.911 107.999 232.162C110.474 230.412 113.716 229.218 117.727 228.578L126.111 227.362V226.21C126.111 224.546 125.727 223.266 124.959 222.37C124.191 221.474 122.847 221.026 120.927 221.026C119.519 221.026 118.388 221.303 117.535 221.858C116.682 222.412 116.02 223.138 115.551 224.034C115.21 224.588 114.719 224.866 114.079 224.866H107.999C107.53 224.866 107.167 224.738 106.911 224.482C106.655 224.183 106.548 223.842 106.591 223.458C106.591 222.732 106.868 221.879 107.423 220.898C107.978 219.916 108.831 218.956 109.983 218.018C111.135 217.036 112.607 216.226 114.399 215.586C116.191 214.946 118.388 214.626 120.991 214.626C123.679 214.626 125.983 214.946 127.903 215.586C129.823 216.226 131.359 217.122 132.511 218.274C133.663 219.426 134.516 220.77 135.071 222.306C135.626 223.799 135.903 225.42 135.903 227.17V246.946C135.903 247.415 135.754 247.799 135.455 248.098C135.156 248.396 134.772 248.546 134.303 248.546H128.031C127.604 248.546 127.242 248.396 126.943 248.098C126.644 247.799 126.495 247.415 126.495 246.946V244.578C125.94 245.388 125.194 246.156 124.255 246.882C123.316 247.564 122.186 248.119 120.863 248.546C119.583 248.972 118.068 249.186 116.319 249.186ZM118.879 242.53C120.287 242.53 121.546 242.231 122.655 241.634C123.764 241.036 124.639 240.119 125.279 238.882C125.919 237.644 126.239 236.087 126.239 234.21V233.122L120.287 234.082C117.983 234.466 116.298 235.042 115.231 235.81C114.164 236.578 113.631 237.516 113.631 238.626C113.631 239.436 113.866 240.14 114.335 240.738C114.847 241.335 115.508 241.783 116.319 242.082C117.13 242.38 117.983 242.53 118.879 242.53ZM163.921 248.546C163.452 248.546 163.068 248.396 162.769 248.098C162.47 247.799 162.321 247.415 162.321 246.946V205.346C162.321 204.876 162.47 204.492 162.769 204.194C163.068 203.895 163.452 203.746 163.921 203.746H182.929C186.47 203.746 189.372 204.258 191.633 205.282C193.894 206.306 195.558 207.756 196.625 209.634C197.734 211.511 198.289 213.708 198.289 216.226C198.289 217.804 197.99 219.191 197.393 220.386C196.838 221.58 196.134 222.562 195.281 223.33C194.47 224.098 193.681 224.674 192.913 225.058C194.577 225.826 196.028 227.106 197.265 228.898C198.545 230.647 199.185 232.738 199.185 235.17C199.185 237.858 198.588 240.204 197.393 242.21C196.198 244.215 194.428 245.772 192.081 246.882C189.734 247.991 186.876 248.546 183.505 248.546H163.921ZM172.497 241.058H182.289C184.38 241.058 185.958 240.482 187.025 239.33C188.092 238.135 188.625 236.727 188.625 235.106C188.625 233.442 188.07 232.055 186.961 230.946C185.894 229.794 184.337 229.218 182.289 229.218H172.497V241.058ZM172.497 221.858H181.713C183.718 221.858 185.212 221.367 186.193 220.386C187.217 219.362 187.729 218.06 187.729 216.482C187.729 214.903 187.217 213.644 186.193 212.706C185.212 211.724 183.718 211.234 181.713 211.234H172.497V221.858ZM209.573 248.546C209.146 248.546 208.784 248.396 208.485 248.098C208.186 247.799 208.037 247.415 208.037 246.946V216.866C208.037 216.439 208.186 216.076 208.485 215.778C208.784 215.436 209.146 215.266 209.573 215.266H215.845C216.272 215.266 216.634 215.436 216.933 215.778C217.274 216.076 217.445 216.439 217.445 216.866V219.426C218.512 218.103 219.813 217.079 221.349 216.354C222.928 215.628 224.741 215.266 226.789 215.266H229.541C229.968 215.266 230.33 215.415 230.629 215.714C230.928 216.012 231.077 216.396 231.077 216.866V222.37C231.077 222.839 230.928 223.223 230.629 223.522C230.33 223.82 229.968 223.97 229.541 223.97H223.909C222.032 223.97 220.56 224.503 219.493 225.57C218.426 226.594 217.893 228.066 217.893 229.986V246.946C217.893 247.415 217.744 247.799 217.445 248.098C217.146 248.396 216.762 248.546 216.293 248.546H209.573ZM246.999 249.186C244.738 249.186 242.711 248.759 240.919 247.906C239.127 247.01 237.698 245.815 236.631 244.322C235.564 242.828 235.031 241.164 235.031 239.33C235.031 236.3 236.247 233.911 238.679 232.162C241.154 230.412 244.396 229.218 248.407 228.578L256.791 227.362V226.21C256.791 224.546 256.407 223.266 255.639 222.37C254.871 221.474 253.527 221.026 251.607 221.026C250.199 221.026 249.068 221.303 248.215 221.858C247.362 222.412 246.7 223.138 246.231 224.034C245.89 224.588 245.399 224.866 244.759 224.866H238.679C238.21 224.866 237.847 224.738 237.591 224.482C237.335 224.183 237.228 223.842 237.271 223.458C237.271 222.732 237.548 221.879 238.103 220.898C238.658 219.916 239.511 218.956 240.663 218.018C241.815 217.036 243.287 216.226 245.079 215.586C246.871 214.946 249.068 214.626 251.671 214.626C254.359 214.626 256.663 214.946 258.583 215.586C260.503 216.226 262.039 217.122 263.191 218.274C264.343 219.426 265.196 220.77 265.751 222.306C266.306 223.799 266.583 225.42 266.583 227.17V246.946C266.583 247.415 266.434 247.799 266.135 248.098C265.836 248.396 265.452 248.546 264.983 248.546H258.711C258.284 248.546 257.922 248.396 257.623 248.098C257.324 247.799 257.175 247.415 257.175 246.946V244.578C256.62 245.388 255.874 246.156 254.935 246.882C253.996 247.564 252.866 248.119 251.543 248.546C250.263 248.972 248.748 249.186 246.999 249.186ZM249.559 242.53C250.967 242.53 252.226 242.231 253.335 241.634C254.444 241.036 255.319 240.119 255.959 238.882C256.599 237.644 256.919 236.087 256.919 234.21V233.122L250.967 234.082C248.663 234.466 246.978 235.042 245.911 235.81C244.844 236.578 244.311 237.516 244.311 238.626C244.311 239.436 244.546 240.14 245.015 240.738C245.527 241.335 246.188 241.783 246.999 242.082C247.81 242.38 248.663 242.53 249.559 242.53ZM277.788 248.546C277.361 248.546 276.999 248.396 276.7 248.098C276.401 247.799 276.252 247.415 276.252 246.946V216.866C276.252 216.396 276.401 216.012 276.7 215.714C276.999 215.415 277.361 215.266 277.788 215.266H284.188C284.657 215.266 285.041 215.415 285.34 215.714C285.639 216.012 285.788 216.396 285.788 216.866V246.946C285.788 247.415 285.639 247.799 285.34 248.098C285.041 248.396 284.657 248.546 284.188 248.546H277.788ZM277.596 210.146C277.169 210.146 276.807 209.996 276.508 209.698C276.209 209.399 276.06 209.015 276.06 208.546V203.426C276.06 202.956 276.209 202.572 276.508 202.274C276.807 201.932 277.169 201.762 277.596 201.762H284.316C284.785 201.762 285.169 201.932 285.468 202.274C285.809 202.572 285.98 202.956 285.98 203.426V208.546C285.98 209.015 285.809 209.399 285.468 209.698C285.169 209.996 284.785 210.146 284.316 210.146H277.596ZM298.896 248.546C298.469 248.546 298.106 248.396 297.808 248.098C297.509 247.799 297.36 247.415 297.36 246.946V216.866C297.36 216.396 297.509 216.012 297.808 215.714C298.106 215.415 298.469 215.266 298.896 215.266H305.168C305.637 215.266 306.021 215.415 306.32 215.714C306.618 216.012 306.768 216.396 306.768 216.866V219.362C307.877 217.996 309.306 216.866 311.056 215.97C312.805 215.074 314.938 214.626 317.456 214.626C319.973 214.626 322.17 215.202 324.048 216.354C325.968 217.463 327.461 219.106 328.528 221.282C329.637 223.415 330.192 226.018 330.192 229.09V246.946C330.192 247.415 330.021 247.799 329.68 248.098C329.381 248.396 329.018 248.546 328.592 248.546H321.808C321.338 248.546 320.954 248.396 320.656 248.098C320.357 247.799 320.208 247.415 320.208 246.946V229.474C320.208 227.212 319.653 225.463 318.544 224.226C317.477 222.946 315.898 222.306 313.808 222.306C311.802 222.306 310.202 222.946 309.008 224.226C307.813 225.463 307.216 227.212 307.216 229.474V246.946C307.216 247.415 307.066 247.799 306.768 248.098C306.469 248.396 306.106 248.546 305.68 248.546H298.896Z" fill="white"/>
</g>
<defs>
<clipPath id="clip0_1534_12718">
<rect width="341" height="249" fill="white"/>
</clipPath>
</defs>
</svg>
