<svg width="300" height="300" viewBox="0 0 300 300" fill="none" xmlns="http://www.w3.org/2000/svg">
<g clip-path="url(#clip0_1536_12775)">
<path d="M153 51.4286C151.286 61.5 148.714 71.3571 145.5 81.2143C148.286 82.5 157.286 87.2143 163.714 90.6428C171.643 76.7143 175.714 61.0714 175.714 45V44.5714C168 45.8571 160.286 48.2143 153 51.4286Z" fill="black"/>
<path d="M250.072 185.357C249.643 186.643 249.429 188.143 249 189.429C247.286 195.214 244.715 200.571 241.5 205.5C235.929 213.429 228.643 219.857 220.072 224.143C212.143 228 203.357 230.143 194.357 230.143H192C187.072 229.929 182.358 229.286 177.643 227.786C174.215 226.714 170.572 226.071 167.143 225.643L164.786 225.429C163.715 225.429 162.429 225.429 161.357 225.429C158.786 225.429 156.215 225.643 153.643 226.071C153.429 226.071 153 226.071 152.786 226.071C119.572 229.714 91.0718 250.714 77.7861 281.143C10.5004 244.286 -17.9996 162.643 11.5718 92.1429L12.6432 91.5C14.5718 90.4286 16.5004 89.5714 18.4289 88.7143C20.5718 87.8571 22.5004 87 24.4289 86.1429C26.3575 85.2857 28.5004 84.4286 30.6432 83.7857C32.7861 83.1428 34.0718 82.5 36.0004 82.0714L37.7147 81.6428L42.6432 80.3571L43.5004 80.1429C45.4289 79.7143 47.3575 79.0714 49.2861 78.8571H50.1432C52.0718 78.4286 54.0004 78 56.1432 77.7857H56.3575C58.5004 77.3571 60.8575 77.1429 63.0004 76.7143C76.2861 44.3571 106.5 22.2857 141.215 19.2857C143.786 27.6428 144.857 36.4286 145.072 45.2143C145.072 49.0714 144.857 52.7143 144.429 56.3571C143.143 66.4286 140.358 76.2857 135.858 85.5C163.5 96.2143 187.286 115.071 204.429 139.286C198.857 141.643 194.358 146.357 192.429 151.929L231.429 174.429L250.072 185.357Z" fill="black"/>
<path d="M152.358 226.071C130.501 229.5 112.715 245.143 106.287 266.357C106.072 267.429 105.644 268.5 105.429 269.571C105.215 270.643 105.215 270.643 105.001 271.286C104.787 271.929 104.572 273 104.572 273.857C104.358 274.714 104.358 275.571 104.144 276.214C103.501 281.786 103.715 287.571 104.787 293.143C95.358 290.143 86.1437 286.286 77.5723 281.357C90.858 250.714 119.358 229.714 152.358 226.071Z" fill="black"/>
<path d="M150.001 0C89.5723 0 34.9294 36.2143 11.5723 92.1429L12.6437 91.5C14.5723 90.4286 16.5008 89.5714 18.4294 88.7143C20.5723 87.8571 22.5008 87 24.4294 86.1429C26.358 85.2857 28.5008 84.4286 30.6437 83.7857C32.7865 83.1429 34.0723 82.5 36.0008 82.0714L37.7151 81.6429L42.6437 80.3571L43.5008 80.1429C45.4294 79.7143 47.358 79.0714 49.2866 78.8571H50.1437C52.0723 78.4286 54.0008 78 56.1437 77.7857H56.358C58.5008 77.3571 60.858 77.1429 63.0008 76.7143C76.2865 44.3571 106.501 22.2857 141.215 19.2857C143.787 27.6429 144.858 36.4286 145.072 45.2143C145.072 49.0714 144.858 52.7143 144.429 56.3571C143.144 66.4286 140.358 76.2857 135.858 85.5C163.501 96.2143 187.287 115.071 204.429 139.286C198.858 141.643 194.358 146.357 192.429 151.929L231.429 174.429L250.287 185.357C249.858 186.643 249.644 188.143 249.215 189.429C247.501 195.214 244.929 200.571 241.715 205.5C236.144 213.429 228.858 219.857 220.287 224.143C212.358 228 203.572 230.143 194.572 230.143H192.429C187.501 229.929 182.787 229.286 178.072 227.786C174.644 226.714 171.001 226.071 167.572 225.643L165.215 225.429C164.144 225.429 162.858 225.429 161.787 225.429C159.215 225.429 156.644 225.643 154.072 226.071C153.858 226.071 153.429 226.071 153.215 226.071C131.358 229.5 113.144 245.143 106.929 266.357C106.715 267.429 106.287 268.5 106.072 269.571C105.858 270.643 105.858 270.643 105.644 271.286C105.429 271.929 105.215 273 105.215 273.857C105.001 274.714 105.001 275.571 104.787 276.214C104.144 281.786 104.358 287.571 105.429 293.143C184.501 318 268.715 274.286 293.572 195.214C318.429 116.143 274.072 31.9286 195.001 6.85714C180.429 2.35714 165.215 0 150.001 0ZM175.715 45C175.715 61.0714 171.644 76.7143 163.501 90.6429C157.072 87.2143 148.072 82.5 145.287 81.2143C148.501 71.5714 151.072 61.5 152.787 51.4286C160.287 48.4286 168.001 46.0714 175.715 45Z" fill="white"/>
<path d="M129.215 141.429C129.215 141.429 148.715 140.786 155.572 143.357C162.429 145.929 168.643 153 169.501 158.357C161.358 160.5 152.786 160.286 144.858 157.5C137.786 154.071 132.429 148.5 129.215 141.429Z" fill="white"/>
</g>
<defs>
<clipPath id="clip0_1536_12775">
<rect width="300" height="300" fill="white"/>
</clipPath>
</defs>
</svg>
