<svg width="300" height="300" viewBox="0 0 300 300" fill="none" xmlns="http://www.w3.org/2000/svg">
<g clip-path="url(#clip0_1533_12686)">
<path d="M128 141.074C128 141.074 147.381 140.411 154.186 143.061C160.99 145.71 167.381 152.995 168 158.515C159.959 160.723 151.299 160.502 143.464 157.632C136.66 154.099 131.093 148.359 128 141.074Z" fill="black"/>
<path d="M149.109 0C88.2488 0 33.3918 36.2007 10 92.1082L11.035 91.4656C12.8981 90.3945 14.7612 89.5377 16.8312 88.6809C18.9013 87.8241 20.7644 86.9673 22.8345 86.1104C24.9045 85.2536 26.9746 84.3968 29.0447 83.7542C31.1148 83.1116 32.5638 82.4689 34.4269 82.0405L36.0829 81.6121L41.0511 80.3269L41.8791 80.1127C43.7422 79.6843 45.6053 79.0417 47.6754 78.8275H48.5034C50.3664 78.399 52.2295 77.9706 54.5066 77.7564H54.7136C56.9907 77.328 59.0608 77.1138 61.3378 76.6854C74.5863 44.3404 105.016 22.2773 140.001 19.2785C142.485 27.6325 143.727 36.4149 143.727 45.1973C143.727 49.053 143.52 52.6944 143.106 56.3359C141.864 66.4036 138.966 76.257 134.411 85.4678C162.15 96.1781 186.163 115.028 203.345 139.233C197.756 141.59 193.202 146.302 191.132 151.871L230.463 174.363L249.301 185.287C248.887 186.573 248.68 188.072 248.266 189.357C246.609 195.141 244.125 200.496 240.813 205.423C235.224 213.348 227.772 219.774 219.078 224.058C211.004 227.914 202.31 230.056 193.409 230.056H191.339C186.577 229.842 181.609 229.199 177.055 227.7C173.536 226.629 170.017 225.986 166.498 225.558L164.014 225.344C162.978 225.344 161.736 225.344 160.494 225.344C157.803 225.344 155.319 225.558 152.628 225.986C152.421 225.986 152.007 225.986 151.8 225.986C129.857 229.414 111.641 245.051 105.223 266.257C105.016 267.328 104.602 268.399 104.395 269.47C104.188 270.541 104.188 270.541 103.981 271.184C103.774 271.826 103.567 272.897 103.567 273.754C103.36 274.611 103.36 275.468 103.153 276.11C102.532 281.68 102.739 287.463 103.774 293.033C183.265 317.88 267.931 274.182 292.979 195.141C318.027 116.099 273.934 31.9166 194.444 7.06877C179.746 2.35626 164.428 0 149.109 0ZM174.985 44.9831C174.985 61.0484 170.845 76.6854 162.771 90.6087C156.354 87.1815 147.246 82.4689 144.555 81.1837C147.66 71.5445 150.351 61.4768 152.007 51.4092C159.459 48.4103 167.119 46.0541 174.985 44.9831Z" fill="black"/>
<path d="M153.199 51.8465C151.553 61.9023 149.085 71.7442 146 81.5861C148.674 82.8698 157.312 87.5767 163.482 91C171.092 77.093 175 61.4744 175 45.4279V45C167.596 46.2837 160.191 48.6372 153.199 51.8465Z" fill="white"/>
<path d="M248 185.162C247.575 186.448 247.363 187.949 246.938 189.236C245.238 195.025 242.689 200.385 239.502 205.316C233.978 213.249 226.754 219.681 218.256 223.969C210.395 227.828 201.684 229.972 192.761 229.972H190.424C185.538 229.758 180.864 229.115 176.189 227.614C172.79 226.542 169.178 225.899 165.779 225.47L163.442 225.255C162.38 225.255 161.105 225.255 160.043 225.255C157.493 225.255 154.944 225.47 152.394 225.899C152.182 225.899 151.757 225.899 151.544 225.899C118.614 229.543 90.3567 250.555 77.1843 281C10.4727 244.123 -17.7841 162.435 11.535 91.8969L12.5973 91.2537C14.5094 90.1817 16.4215 89.3241 18.3337 88.4665C20.4582 87.6088 22.3703 86.7512 24.2825 85.8936C26.1946 85.036 28.3192 84.1784 30.4437 83.5352C32.5683 82.892 33.843 82.2488 35.7552 81.82L37.4548 81.3912L42.3413 80.1047L43.1912 79.8903C45.1033 79.4615 47.0154 78.8183 48.9275 78.6039H49.7773C51.6895 78.1751 53.6016 77.7463 55.7261 77.5319H55.9386C58.0632 77.1031 60.4002 76.8887 62.5248 76.4599C75.6971 44.0851 105.654 22.0016 140.072 19C142.621 27.3617 143.683 36.1522 143.896 44.9427C143.896 48.802 143.683 52.4468 143.259 56.0917C141.984 66.1686 139.222 76.0311 134.76 85.2504C162.167 95.9705 185.75 114.838 202.747 139.065C197.223 141.424 192.761 146.141 190.849 151.715L229.516 174.227L248 185.162Z" fill="white"/>
<path d="M149 227C137.12 228.844 125.96 234.743 117.68 243.592C111.92 249.86 107.24 257.603 104.72 266.453C104.36 267.559 104 268.665 104 269.402C104 270.14 103.64 270.508 103.64 271.246C103.28 271.983 103.28 272.721 103.28 273.827C103.28 274.564 102.92 275.302 102.92 276.408C102.2 281.939 102.56 287.838 103.28 293C94.2801 290.05 85.28 286.363 77 281.57C89.6 252.073 116.6 230.687 149 227Z" fill="#B4BCC4"/>
<path d="M135 141.074C135 141.074 153.878 140.411 160.516 143.061C167.154 145.71 173.17 152.995 174 158.515C166.117 160.723 157.819 160.502 150.144 157.632C143.298 154.099 138.112 148.359 135 141.074Z" fill="black"/>
</g>
<defs>
<clipPath id="clip0_1533_12686">
<rect width="300" height="300" fill="white"/>
</clipPath>
</defs>
</svg>
